<svg width="26" height="18" viewBox="0 0 26 18" fill="none" xmlns="http://www.w3.org/2000/svg">
<path d="M24.1429 9C22.6726 6.54167 20.83 4.70312 18.615 3.48438C19.205 4.56771 19.5 5.73958 19.5 7C19.5 8.92708 18.864 10.5755 17.5921 11.9453C16.3201 13.3151 14.7894 14 13 14C11.2106 14 9.67987 13.3151 8.40792 11.9453C7.13597 10.5755 6.5 8.92708 6.5 7C6.5 5.73958 6.79501 4.56771 7.38504 3.48438C5.17001 4.70312 3.32738 6.54167 1.85714 9C3.1436 11.1354 4.75651 12.8359 6.69587 14.1016C8.63523 15.3672 10.7366 16 13 16C15.2634 16 17.3648 15.3672 19.3041 14.1016C21.2435 12.8359 22.8564 11.1354 24.1429 9ZM13.6964 3C13.6964 2.79167 13.6287 2.61458 13.4933 2.46875C13.3579 2.32292 13.1935 2.25 13 2.25C11.7909 2.25 10.7535 2.71615 9.88783 3.64844C9.02213 4.58073 8.58929 5.69792 8.58929 7C8.58929 7.20833 8.65699 7.38542 8.79241 7.53125C8.92783 7.67708 9.09226 7.75 9.28571 7.75C9.47917 7.75 9.6436 7.67708 9.77902 7.53125C9.91443 7.38542 9.98214 7.20833 9.98214 7C9.98214 6.10417 10.2772 5.33854 10.8672 4.70312C11.4572 4.06771 12.1682 3.75 13 3.75C13.1935 3.75 13.3579 3.67708 13.4933 3.53125C13.6287 3.38542 13.6964 3.20833 13.6964 3ZM26 9C26 9.35417 25.9033 9.71354 25.7098 10.0781C24.3557 12.474 22.5348 14.3932 20.2472 15.8359C17.9596 17.2786 15.5439 18 13 18C10.4561 18 8.04036 17.276 5.75279 15.8281C3.46522 14.3802 1.64435 12.4635 0.290179 10.0781C0.0967262 9.71354 0 9.35417 0 9C0 8.64583 0.0967262 8.28646 0.290179 7.92188C1.64435 5.53646 3.46522 3.61979 5.75279 2.17188C8.04036 0.723958 10.4561 0 13 0C15.5439 0 17.9596 0.723958 20.2472 2.17188C22.5348 3.61979 24.3557 5.53646 25.7098 7.92188C25.9033 8.28646 26 8.64583 26 9Z" fill="#ADADAD"/>
</svg>
